<svg width="52" height="52" viewBox="0 0 52 52" fill="none" xmlns="http://www.w3.org/2000/svg">
<g filter="url(#filter0_dd_13534_33)">
<path d="M5 22C5 10.402 14.402 1 26 1C37.598 1 47 10.402 47 22C47 33.598 37.598 43 26 43C14.402 43 5 33.598 5 22Z" fill="#32C96A" shape-rendering="crispEdges"/>
<path d="M25.2708 29.0949C25.4925 29.2229 25.744 29.2903 26 29.2903C26.256 29.2903 26.5075 29.2229 26.7292 29.0949L31.8333 26.1783C32.0548 26.0504 32.2388 25.8665 32.3667 25.6451C32.4947 25.4237 32.5622 25.1725 32.5625 24.9168V19.0835C32.5622 18.8277 32.4947 18.5766 32.3667 18.3551C32.2388 18.1337 32.0548 17.9499 31.8333 17.822L26.7292 14.9053C26.5075 14.7773 26.256 14.71 26 14.71C25.744 14.71 25.4925 14.7773 25.2708 14.9053L20.1667 17.822C19.9452 17.9499 19.7612 18.1337 19.6333 18.3551C19.5053 18.5766 19.4378 18.8277 19.4375 19.0835V24.9168C19.4378 25.1725 19.5053 25.4237 19.6333 25.6451C19.7612 25.8665 19.9452 26.0504 20.1667 26.1783L25.2708 29.0949Z" stroke="white" stroke-width="1.45833" stroke-linecap="round" stroke-linejoin="round"/>
<path d="M26 29.2917V22" stroke="white" stroke-width="1.45833" stroke-linecap="round" stroke-linejoin="round"/>
<path d="M19.6494 18.354L26.0005 21.9998L32.3515 18.354" stroke="white" stroke-width="1.45833" stroke-linecap="round" stroke-linejoin="round"/>
<path d="M22.7188 16.3638L29.2813 20.119" stroke="white" stroke-width="1.45833" stroke-linecap="round" stroke-linejoin="round"/>
</g>
<defs>
<filter id="filter0_dd_13534_33" x="0" y="0" width="52" height="52" filterUnits="userSpaceOnUse" color-interpolation-filters="sRGB">
<feFlood flood-opacity="0" result="BackgroundImageFix"/>
<feColorMatrix in="SourceAlpha" type="matrix" values="0 0 0 0 0 0 0 0 0 0 0 0 0 0 0 0 0 0 127 0" result="hardAlpha"/>
<feMorphology radius="2" operator="erode" in="SourceAlpha" result="effect1_dropShadow_13534_33"/>
<feOffset dy="2"/>
<feGaussianBlur stdDeviation="2"/>
<feComposite in2="hardAlpha" operator="out"/>
<feColorMatrix type="matrix" values="0 0 0 0 0.196075 0 0 0 0 0.788236 0 0 0 0 0.415687 0 0 0 0.2 0"/>
<feBlend mode="normal" in2="BackgroundImageFix" result="effect1_dropShadow_13534_33"/>
<feColorMatrix in="SourceAlpha" type="matrix" values="0 0 0 0 0 0 0 0 0 0 0 0 0 0 0 0 0 0 127 0" result="hardAlpha"/>
<feMorphology radius="1" operator="erode" in="SourceAlpha" result="effect2_dropShadow_13534_33"/>
<feOffset dy="4"/>
<feGaussianBlur stdDeviation="3"/>
<feComposite in2="hardAlpha" operator="out"/>
<feColorMatrix type="matrix" values="0 0 0 0 0.196075 0 0 0 0 0.788236 0 0 0 0 0.415687 0 0 0 0.2 0"/>
<feBlend mode="normal" in2="effect1_dropShadow_13534_33" result="effect2_dropShadow_13534_33"/>
<feBlend mode="normal" in="SourceGraphic" in2="effect2_dropShadow_13534_33" result="shape"/>
</filter>
</defs>
</svg>
