<svg width="21" height="21" viewBox="0 0 21 21" fill="none" xmlns="http://www.w3.org/2000/svg">
<path d="M0 8.75C0 3.91751 3.91751 0 8.75 0H12.25C17.0825 0 21 3.91751 21 8.75V12.25C21 17.0825 17.0825 21 12.25 21H8.75C3.91751 21 0 17.0825 0 12.25V8.75Z" fill="#32C96A" fill-opacity="0.1"/>
<path d="M14 9.625C14 11.8094 11.5767 14.0844 10.7629 14.7871C10.6871 14.8441 10.5948 14.8749 10.5 14.8749C10.4052 14.8749 10.3129 14.8441 10.2371 14.7871C9.42331 14.0844 7 11.8094 7 9.625C7 8.69674 7.36875 7.8065 8.02513 7.15013C8.6815 6.49375 9.57174 6.125 10.5 6.125C11.4283 6.125 12.3185 6.49375 12.9749 7.15013C13.6313 7.8065 14 8.69674 14 9.625Z" fill="#32C96A" stroke="#32C96A" stroke-width="0.875" stroke-linecap="round" stroke-linejoin="round"/>
<path d="M10.5 10.9375C11.2249 10.9375 11.8125 10.3499 11.8125 9.625C11.8125 8.90013 11.2249 8.3125 10.5 8.3125C9.77513 8.3125 9.1875 8.90013 9.1875 9.625C9.1875 10.3499 9.77513 10.9375 10.5 10.9375Z" fill="#32C96A" stroke="#32C96A" stroke-width="0.875" stroke-linecap="round" stroke-linejoin="round"/>
</svg>
