<svg width="18" height="18" viewBox="0 0 18 18" fill="none" xmlns="http://www.w3.org/2000/svg">
<g filter="url(#filter0_d_13476_237)">
<mask id="path-1-inside-1_13476_237" fill="white">
<path d="M2 5C2 2.79086 3.79086 1 6 1H12C14.2091 1 16 2.79086 16 5V11C16 13.2091 14.2091 15 12 15H6C3.79086 15 2 13.2091 2 11V5Z"/>
</mask>
<path d="M2 5C2 2.79086 3.79086 1 6 1H12C14.2091 1 16 2.79086 16 5V11C16 13.2091 14.2091 15 12 15H6C3.79086 15 2 13.2091 2 11V5Z" fill="#32C96A" shape-rendering="crispEdges"/>
<path d="M6 1V2H12V1V0H6V1ZM16 5H15V11H16H17V5H16ZM12 15V14H6V15V16H12V15ZM2 11H3V5H2H1V11H2ZM6 15V14C4.34315 14 3 12.6569 3 11H2H1C1 13.7614 3.23858 16 6 16V15ZM16 11H15C15 12.6569 13.6569 14 12 14V15V16C14.7614 16 17 13.7614 17 11H16ZM12 1V2C13.6569 2 15 3.34315 15 5H16H17C17 2.23858 14.7614 0 12 0V1ZM6 1V0C3.23858 0 1 2.23858 1 5H2H3C3 3.34315 4.34315 2 6 2V1Z" fill="#32C96A" mask="url(#path-1-inside-1_13476_237)"/>
<path d="M13 5.125L7.5 10.625L5 8.125" stroke="white" stroke-linecap="round" stroke-linejoin="round"/>
</g>
<defs>
<filter id="filter0_d_13476_237" x="0" y="0" width="18" height="18" filterUnits="userSpaceOnUse" color-interpolation-filters="sRGB">
<feFlood flood-opacity="0" result="BackgroundImageFix"/>
<feColorMatrix in="SourceAlpha" type="matrix" values="0 0 0 0 0 0 0 0 0 0 0 0 0 0 0 0 0 0 127 0" result="hardAlpha"/>
<feOffset dy="1"/>
<feGaussianBlur stdDeviation="1"/>
<feComposite in2="hardAlpha" operator="out"/>
<feColorMatrix type="matrix" values="0 0 0 0 0 0 0 0 0 0 0 0 0 0 0 0 0 0 0.05 0"/>
<feBlend mode="normal" in2="BackgroundImageFix" result="effect1_dropShadow_13476_237"/>
<feBlend mode="normal" in="SourceGraphic" in2="effect1_dropShadow_13476_237" result="shape"/>
</filter>
</defs>
</svg>
