<svg width="42" height="42" viewBox="0 0 42 42" fill="none" xmlns="http://www.w3.org/2000/svg">
<path d="M0 12.75C0 5.70837 5.70837 0 12.75 0H29.25C36.2916 0 42 5.70837 42 12.75V29.25C42 36.2916 36.2916 42 29.25 42H12.75C5.70837 42 0 36.2916 0 29.25V12.75Z" fill="#F3F4F6"/>
<path d="M24.0424 21.7787L25.368 29.239C25.3829 29.3268 25.3705 29.4171 25.3327 29.4978C25.2948 29.5784 25.2333 29.6456 25.1562 29.6903C25.0792 29.735 24.9903 29.7552 24.9015 29.748C24.8127 29.7408 24.7282 29.7067 24.6593 29.6502L21.5268 27.2991C21.3756 27.1861 21.1919 27.1251 21.0031 27.1251C20.8143 27.1251 20.6306 27.1861 20.4794 27.2991L17.3417 29.6494C17.2728 29.7058 17.1884 29.7398 17.0997 29.747C17.011 29.7541 16.9222 29.7341 16.8452 29.6895C16.7682 29.6449 16.7066 29.5779 16.6687 29.4974C16.6308 29.4169 16.6183 29.3268 16.6329 29.239L17.9577 21.7787" stroke="#99A1AF" stroke-width="1.75" stroke-linecap="round" stroke-linejoin="round"/>
<path d="M21 22.75C23.8995 22.75 26.25 20.3995 26.25 17.5C26.25 14.6005 23.8995 12.25 21 12.25C18.1005 12.25 15.75 14.6005 15.75 17.5C15.75 20.3995 18.1005 22.75 21 22.75Z" stroke="#99A1AF" stroke-width="1.75" stroke-linecap="round" stroke-linejoin="round"/>
</svg>
