<svg width="71" height="71" viewBox="0 0 71 71" fill="none" xmlns="http://www.w3.org/2000/svg">
<g filter="url(#filter0_dd_13482_448)">
<path d="M12.1367 16.1823C12.1367 8.36221 18.4761 2.02279 26.2962 2.02279H44.7035C52.5236 2.02279 58.863 8.36221 58.863 16.1823V34.5896C58.863 42.4097 52.5236 48.7491 44.7035 48.7491H26.2962C18.4761 48.7491 12.1367 42.4097 12.1367 34.5896V16.1823Z" fill="#32C96A" shape-rendering="crispEdges"/>
<path d="M38.4197 34.1471V26.3594C38.4197 26.1012 38.3171 25.8536 38.1346 25.6711C37.952 25.4885 37.7044 25.3859 37.4462 25.3859H33.5524C33.2942 25.3859 33.0466 25.4885 32.864 25.6711C32.6815 25.8536 32.5789 26.1012 32.5789 26.3594V34.1471" stroke="white" stroke-width="2.40625" stroke-linecap="round" stroke-linejoin="round"/>
<path d="M26.7387 23.439C26.7386 23.1558 26.8004 22.8759 26.9196 22.619C27.0388 22.3621 27.2126 22.1343 27.4289 21.9515L34.2431 16.1107C34.5946 15.8137 35.0398 15.6508 35.4999 15.6508C35.96 15.6508 36.4052 15.8137 36.7566 16.1107L43.5709 21.9515C43.7872 22.1343 43.961 22.3621 44.0802 22.619C44.1994 22.8759 44.2611 23.1558 44.2611 23.439V32.2002C44.2611 32.7165 44.056 33.2117 43.6908 33.5768C43.3257 33.942 42.8305 34.1471 42.3141 34.1471H28.6856C28.1693 34.1471 27.6741 33.942 27.309 33.5768C26.9438 33.2117 26.7387 32.7165 26.7387 32.2002V23.439Z" stroke="white" stroke-width="2.40625" stroke-linecap="round" stroke-linejoin="round"/>
</g>
<defs>
<filter id="filter0_dd_13482_448" x="0" y="0" width="71" height="70.9998" filterUnits="userSpaceOnUse" color-interpolation-filters="sRGB">
<feFlood flood-opacity="0" result="BackgroundImageFix"/>
<feColorMatrix in="SourceAlpha" type="matrix" values="0 0 0 0 0 0 0 0 0 0 0 0 0 0 0 0 0 0 127 0" result="hardAlpha"/>
<feMorphology radius="4" operator="erode" in="SourceAlpha" result="effect1_dropShadow_13482_448"/>
<feOffset dy="4"/>
<feGaussianBlur stdDeviation="3"/>
<feComposite in2="hardAlpha" operator="out"/>
<feColorMatrix type="matrix" values="0 0 0 0 0.196075 0 0 0 0 0.788236 0 0 0 0 0.415687 0 0 0 0.2 0"/>
<feBlend mode="normal" in2="BackgroundImageFix" result="effect1_dropShadow_13482_448"/>
<feColorMatrix in="SourceAlpha" type="matrix" values="0 0 0 0 0 0 0 0 0 0 0 0 0 0 0 0 0 0 127 0" result="hardAlpha"/>
<feMorphology radius="3" operator="erode" in="SourceAlpha" result="effect2_dropShadow_13482_448"/>
<feOffset dy="10"/>
<feGaussianBlur stdDeviation="7.5"/>
<feComposite in2="hardAlpha" operator="out"/>
<feColorMatrix type="matrix" values="0 0 0 0 0.196075 0 0 0 0 0.788236 0 0 0 0 0.415687 0 0 0 0.2 0"/>
<feBlend mode="normal" in2="effect1_dropShadow_13482_448" result="effect2_dropShadow_13482_448"/>
<feBlend mode="normal" in="SourceGraphic" in2="effect2_dropShadow_13482_448" result="shape"/>
</filter>
</defs>
</svg>
