<svg width="18" height="18" viewBox="0 0 18 18" fill="none" xmlns="http://www.w3.org/2000/svg">
<path d="M14.9998 9.75C14.9998 13.5 12.3748 15.375 9.25483 16.4625C9.09145 16.5179 8.91399 16.5152 8.75233 16.455C5.62483 15.375 2.99983 13.5 2.99983 9.75V4.5C2.99983 4.30109 3.07885 4.11032 3.2195 3.96967C3.36015 3.82902 3.55092 3.75 3.74983 3.75C5.24983 3.75 7.12483 2.85 8.42983 1.71C8.58872 1.57425 8.79085 1.49967 8.99983 1.49967C9.20882 1.49967 9.41094 1.57425 9.56983 1.71C10.8823 2.8575 12.7498 3.75 14.2498 3.75C14.4487 3.75 14.6395 3.82902 14.7802 3.96967C14.9208 4.11032 14.9998 4.30109 14.9998 4.5V9.75Z" stroke="#155DFC" stroke-width="1.45833" stroke-linecap="round" stroke-linejoin="round"/>
<path d="M6.75 8.99999L8.25 10.5L11.25 7.49999" stroke="#155DFC" stroke-width="1.45833" stroke-linecap="round" stroke-linejoin="round"/>
</svg>
