<svg width="14" height="14" viewBox="0 0 14 14" fill="none" xmlns="http://www.w3.org/2000/svg">
<path d="M1.75 4.08333V2.91667C1.75 2.60725 1.87292 2.3105 2.09171 2.09171C2.3105 1.87292 2.60725 1.75 2.91667 1.75H4.08333" stroke="#32C96A" stroke-width="1.16667" stroke-linecap="round" stroke-linejoin="round"/>
<path d="M9.91699 1.75H11.0837C11.3931 1.75 11.6898 1.87292 11.9086 2.09171C12.1274 2.3105 12.2503 2.60725 12.2503 2.91667V4.08333" stroke="#32C96A" stroke-width="1.16667" stroke-linecap="round" stroke-linejoin="round"/>
<path d="M12.2503 9.91666V11.0833C12.2503 11.3927 12.1274 11.6895 11.9086 11.9083C11.6898 12.1271 11.3931 12.25 11.0837 12.25H9.91699" stroke="#32C96A" stroke-width="1.16667" stroke-linecap="round" stroke-linejoin="round"/>
<path d="M4.08333 12.25H2.91667C2.60725 12.25 2.3105 12.1271 2.09171 11.9083C1.87292 11.6895 1.75 11.3927 1.75 11.0833V9.91666" stroke="#32C96A" stroke-width="1.16667" stroke-linecap="round" stroke-linejoin="round"/>
<path d="M4.08301 7H9.91634" stroke="#32C96A" stroke-width="1.16667" stroke-linecap="round" stroke-linejoin="round"/>
</svg>
