<svg width="49" height="49" viewBox="0 0 49 49" fill="none" xmlns="http://www.w3.org/2000/svg">
<path d="M0 14C0 6.26801 6.26801 0 14 0H35C42.732 0 49 6.26801 49 14V35C49 42.732 42.732 49 35 49H14C6.26801 49 0 42.732 0 35V14Z" fill="#32C96A" fill-opacity="0.1"/>
<path d="M31.6462 33.6875V31.6458C31.6462 30.5629 31.216 29.5243 30.4502 28.7585C29.6844 27.9927 28.6458 27.5625 27.5628 27.5625H21.4378C20.3549 27.5625 19.3162 27.9927 18.5505 28.7585C17.7847 29.5243 17.3545 30.5629 17.3545 31.6458V33.6875" stroke="#32C96A" stroke-width="2.04167" stroke-linecap="round" stroke-linejoin="round"/>
<path d="M24.5003 23.4792C26.7555 23.4792 28.5837 21.651 28.5837 19.3958C28.5837 17.1407 26.7555 15.3125 24.5003 15.3125C22.2452 15.3125 20.417 17.1407 20.417 19.3958C20.417 21.651 22.2452 23.4792 24.5003 23.4792Z" stroke="#32C96A" stroke-width="2.04167" stroke-linecap="round" stroke-linejoin="round"/>
</svg>
