<svg width="14" height="14" viewBox="0 0 14 14" fill="none" xmlns="http://www.w3.org/2000/svg">
<path d="M4.08333 1.75H2.33333C2.01117 1.75 1.75 2.01117 1.75 2.33333V4.08333C1.75 4.4055 2.01117 4.66667 2.33333 4.66667H4.08333C4.4055 4.66667 4.66667 4.4055 4.66667 4.08333V2.33333C4.66667 2.01117 4.4055 1.75 4.08333 1.75Z" stroke="#0A0A0A" stroke-width="1.16667" stroke-linecap="round" stroke-linejoin="round"/>
<path d="M11.6663 1.75H9.91634C9.59418 1.75 9.33301 2.01117 9.33301 2.33333V4.08333C9.33301 4.4055 9.59418 4.66667 9.91634 4.66667H11.6663C11.9885 4.66667 12.2497 4.4055 12.2497 4.08333V2.33333C12.2497 2.01117 11.9885 1.75 11.6663 1.75Z" stroke="#0A0A0A" stroke-width="1.16667" stroke-linecap="round" stroke-linejoin="round"/>
<path d="M4.08333 9.33334H2.33333C2.01117 9.33334 1.75 9.59451 1.75 9.91668V11.6667C1.75 11.9888 2.01117 12.25 2.33333 12.25H4.08333C4.4055 12.25 4.66667 11.9888 4.66667 11.6667V9.91668C4.66667 9.59451 4.4055 9.33334 4.08333 9.33334Z" stroke="#0A0A0A" stroke-width="1.16667" stroke-linecap="round" stroke-linejoin="round"/>
<path d="M12.2497 9.33334H10.4997C10.1903 9.33334 9.89351 9.45626 9.67472 9.67505C9.45592 9.89384 9.33301 10.1906 9.33301 10.5V12.25" stroke="#0A0A0A" stroke-width="1.16667" stroke-linecap="round" stroke-linejoin="round"/>
<path d="M12.25 12.25V12.2558" stroke="#0A0A0A" stroke-width="1.16667" stroke-linecap="round" stroke-linejoin="round"/>
<path d="M6.99967 4.08334V5.83334C6.99967 6.14276 6.87676 6.43951 6.65797 6.6583C6.43917 6.87709 6.14243 7.00001 5.83301 7.00001H4.08301" stroke="#0A0A0A" stroke-width="1.16667" stroke-linecap="round" stroke-linejoin="round"/>
<path d="M1.75 7H1.75583" stroke="#0A0A0A" stroke-width="1.16667" stroke-linecap="round" stroke-linejoin="round"/>
<path d="M7 1.75H7.00583" stroke="#0A0A0A" stroke-width="1.16667" stroke-linecap="round" stroke-linejoin="round"/>
<path d="M7 9.33334V9.33918" stroke="#0A0A0A" stroke-width="1.16667" stroke-linecap="round" stroke-linejoin="round"/>
<path d="M9.33301 7H9.91634" stroke="#0A0A0A" stroke-width="1.16667" stroke-linecap="round" stroke-linejoin="round"/>
<path d="M12.25 7V7.00583" stroke="#0A0A0A" stroke-width="1.16667" stroke-linecap="round" stroke-linejoin="round"/>
<path d="M7 12.25V11.6667" stroke="#0A0A0A" stroke-width="1.16667" stroke-linecap="round" stroke-linejoin="round"/>
</svg>
