<svg width="56" height="56" viewBox="0 0 56 56" fill="none" xmlns="http://www.w3.org/2000/svg">
<path d="M0 14C0 6.26801 6.26801 0 14 0H42C49.732 0 56 6.26801 56 14V42C56 49.732 49.732 56 42 56H14C6.26801 56 0 49.732 0 42V14Z" fill="#32C96A" fill-opacity="0.1"/>
<path d="M36.1663 38.5V36.1667C36.1663 34.929 35.6747 33.742 34.7995 32.8668C33.9243 31.9917 32.7374 31.5 31.4997 31.5H24.4997C23.262 31.5 22.075 31.9917 21.1998 32.8668C20.3247 33.742 19.833 34.929 19.833 36.1667V38.5" stroke="#32C96A" stroke-width="2.33333" stroke-linecap="round" stroke-linejoin="round"/>
<path d="M27.9997 26.8333C30.577 26.8333 32.6663 24.744 32.6663 22.1667C32.6663 19.5893 30.577 17.5 27.9997 17.5C25.4223 17.5 23.333 19.5893 23.333 22.1667C23.333 24.744 25.4223 26.8333 27.9997 26.8333Z" stroke="#32C96A" stroke-width="2.33333" stroke-linecap="round" stroke-linejoin="round"/>
</svg>
