<svg width="56" height="56" viewBox="0 0 56 56" fill="none" xmlns="http://www.w3.org/2000/svg">
<mask id="path-1-inside-1_13456_511" fill="white">
<path d="M0 28C0 12.536 12.536 0 28 0C43.464 0 56 12.536 56 28C56 43.464 43.464 56 28 56C12.536 56 0 43.464 0 28Z"/>
</mask>
<path d="M28 56V52C14.7452 52 4 41.2548 4 28H0H-4C-4 45.6731 10.3269 60 28 60V56ZM56 28H52C52 41.2548 41.2548 52 28 52V56V60C45.6731 60 60 45.6731 60 28H56ZM28 0V4C41.2548 4 52 14.7452 52 28H56H60C60 10.3269 45.6731 -4 28 -4V0ZM28 0V-4C10.3269 -4 -4 10.3269 -4 28H0H4C4 14.7452 14.7452 4 28 4V0Z" fill="white" mask="url(#path-1-inside-1_13456_511)"/>
<path d="M7 28C7 16.402 16.402 7 28 7C39.598 7 49 16.402 49 28C49 39.598 39.598 49 28 49C16.402 49 7 39.598 7 28Z" fill="white"/>
</svg>
