<svg width="28" height="28" viewBox="0 0 28 28" fill="none" xmlns="http://www.w3.org/2000/svg">
<path d="M0 14C0 6.26801 6.26801 0 14 0C21.732 0 28 6.26801 28 14C28 21.732 21.732 28 14 28C6.26801 28 0 21.732 0 14Z" fill="#F3F4F6"/>
<path d="M18.6666 12.8333C18.6666 15.7459 15.4356 18.7792 14.3506 19.7161C14.2495 19.7921 14.1264 19.8332 14 19.8332C13.8735 19.8332 13.7505 19.7921 13.6494 19.7161C12.5644 18.7792 9.33331 15.7459 9.33331 12.8333C9.33331 11.5956 9.82498 10.4087 10.7001 9.53349C11.5753 8.65832 12.7623 8.16666 14 8.16666C15.2377 8.16666 16.4246 8.65832 17.2998 9.53349C18.175 10.4087 18.6666 11.5956 18.6666 12.8333Z" stroke="#99A1AF" stroke-width="1.16667" stroke-linecap="round" stroke-linejoin="round"/>
<path d="M14 14.5833C14.9665 14.5833 15.75 13.7998 15.75 12.8333C15.75 11.8668 14.9665 11.0833 14 11.0833C13.0335 11.0833 12.25 11.8668 12.25 12.8333C12.25 13.7998 13.0335 14.5833 14 14.5833Z" stroke="#99A1AF" stroke-width="1.16667" stroke-linecap="round" stroke-linejoin="round"/>
</svg>
